<?xml version="1.0" standalone="no"?>
<!DOCTYPE svg PUBLIC "-//W3C//DTD SVG 20010904//EN"
 "http://www.w3.org/TR/2001/REC-SVG-20010904/DTD/svg10.dtd">
<svg version="1.0" xmlns="http://www.w3.org/2000/svg"
 width="246.000000pt" height="246.000000pt" viewBox="0 0 246.000000 246.000000"
 preserveAspectRatio="xMidYMid meet">
<metadata>
Created by potrace 1.14, written by Peter Selinger 2001-2017
</metadata>
<g transform="translate(0.000000,246.000000) scale(0.100000,-0.100000)"
fill="#000000" stroke="none">
<path d="M0 1230 l0 -1230 1230 0 1230 0 0 1230 0 1230 -1230 0 -1230 0 0
-1230z m1808 867 c8 -10 7 -28 -3 -68 -8 -29 -40 -184 -71 -343 -103 -538
-164 -826 -199 -933 -68 -206 -152 -321 -281 -384 -114 -56 -273 -53 -344 7
-43 37 -54 63 -84 195 -81 362 -137 758 -156 1100 -10 186 -4 228 37 271 50
53 99 71 198 76 79 3 95 1 134 -20 74 -38 84 -70 92 -283 9 -208 67 -963 78
-1015 8 -34 9 -32 39 65 18 55 57 208 87 340 120 519 173 702 242 838 29 59
40 71 77 87 24 10 47 24 51 30 9 15 66 50 81 50 6 0 16 -6 22 -13z"/>
</g>
</svg>
